<svg width="27" height="27" viewBox="0 0 27 27" fill="none" xmlns="http://www.w3.org/2000/svg">
<circle cx="13.5" cy="13.5" r="13" fill="white"/>
<path d="M9.5 13C9.22386 13 9 13.2239 9 13.5C9 13.7761 9.22386 14 9.5 14L9.5 13ZM18.8536 13.8536C19.0488 13.6583 19.0488 13.3417 18.8536 13.1464L15.6716 9.96447C15.4763 9.7692 15.1597 9.7692 14.9645 9.96447C14.7692 10.1597 14.7692 10.4763 14.9645 10.6716L17.7929 13.5L14.9645 16.3284C14.7692 16.5237 14.7692 16.8403 14.9645 17.0355C15.1597 17.2308 15.4763 17.2308 15.6716 17.0355L18.8536 13.8536ZM9.5 14L18.5 14L18.5 13L9.5 13L9.5 14Z" fill="url(#paint0_linear_1_628)"/>
<defs>
<linearGradient id="paint0_linear_1_628" x1="3.26923" y1="6.50001" x2="21.502" y2="12.9456" gradientUnits="userSpaceOnUse">
<stop stop-color="#0239FE"/>
<stop offset="1" stop-color="#027FFE"/>
</linearGradient>
</defs>
</svg>
