<svg width="11" height="10" viewBox="0 0 11 10" fill="none" xmlns="http://www.w3.org/2000/svg">
<path d="M9.73598 0.970056C9.80423 0.900422 9.88568 0.845103 9.97557 0.807339C10.0655 0.769574 10.162 0.750122 10.2595 0.750122C10.357 0.750122 10.4535 0.769574 10.5434 0.807339C10.6333 0.845103 10.7147 0.900422 10.783 0.970056C11.069 1.25906 11.073 1.72606 10.793 2.02006L4.87998 9.01006C4.81285 9.08378 4.73138 9.14303 4.64056 9.18418C4.54974 9.22533 4.45148 9.24752 4.35179 9.2494C4.2521 9.25127 4.15307 9.23278 4.06077 9.19507C3.96847 9.15735 3.88483 9.1012 3.81498 9.03006L0.21698 5.38406C0.0782173 5.24254 0.000488281 5.05225 0.000488281 4.85406C0.000488281 4.65586 0.0782173 4.46557 0.21698 4.32406C0.285226 4.25442 0.366679 4.1991 0.456569 4.16134C0.546459 4.12357 0.642979 4.10412 0.74048 4.10412C0.837981 4.10412 0.934502 4.12357 1.02439 4.16134C1.11428 4.1991 1.19573 4.25442 1.26398 4.32406L4.31598 7.41706L9.71598 0.992056L9.73598 0.970056Z" fill="white"/>
</svg>
