<svg width="21" height="16" viewBox="0 0 21 16" fill="none" xmlns="http://www.w3.org/2000/svg">
<path d="M13.7674 8.11182L20.7693 12.7618V3.26545L13.7674 8.11182Z" fill="currentColor"/>
<path d="M3.05176e-05 3.26545V12.7618L7.00186 8.11182L3.05176e-05 3.26545Z" fill="currentColor"/>
<path d="M19.4712 0.5H1.29811C0.650367 0.5 0.136329 1.00727 0.0389728 1.66045L10.3846 8.82091L20.7303 1.66045C20.633 1.00727 20.1189 0.5 19.4712 0.5Z" fill="currentColor"/>
<path d="M12.5784 8.93545L10.7416 10.2064C10.6326 10.2814 10.5093 10.3182 10.3846 10.3182C10.26 10.3182 10.1367 10.2814 10.0277 10.2064L8.1909 8.93409L0.041569 14.3491C0.141521 14.9968 0.652963 15.5 1.29811 15.5H19.4712C20.1163 15.5 20.6278 14.9968 20.7277 14.3491L12.5784 8.93545Z" fill="currentColor"/>
</svg>