<svg width="18" height="18" viewBox="0 0 18 18" fill="none" xmlns="http://www.w3.org/2000/svg">
<path d="M7.76074 10.2394C6.49324 8.9719 5.53774 7.55273 4.90291 6.11298C4.76858 5.80856 4.84766 5.45215 5.08274 5.21707L5.96999 4.3309C6.69691 3.60398 6.69691 2.5759 6.06208 1.94106L4.79024 0.669231C3.94416 -0.176853 2.57266 -0.176853 1.72658 0.669231L1.02024 1.37556C0.217493 2.17831 -0.117257 3.3364 0.0994099 4.48473C0.634577 7.31548 2.27908 10.4149 4.93216 13.068C7.58524 15.7211 10.6847 17.3656 13.5154 17.9007C14.6637 18.1174 15.8218 17.7826 16.6246 16.9799L17.3298 16.2746C18.1759 15.4286 18.1759 14.0571 17.3298 13.211L16.0591 11.9402C15.4242 11.3054 14.3951 11.3054 13.7613 11.9402L12.7831 12.9196C12.548 13.1546 12.1916 13.2337 11.8872 13.0994C10.4474 12.4635 9.02824 11.5069 7.76074 10.2394V10.2394Z" fill="#012BBF"/>
</svg>
